<?xml version="1.0" encoding="utf-8"?>
<!-- Generator: Adobe Illustrator 24.2.0, SVG Export Plug-In . SVG Version: 6.00 Build 0)  -->
<svg version="1.1" id="Layer_1" xmlns="http://www.w3.org/2000/svg" xmlns:xlink="http://www.w3.org/1999/xlink" x="0px" y="0px"
	 width="167.3px" height="187.1px" viewBox="0 0 167.3 187.1" style="enable-background:new 0 0 167.3 187.1;" xml:space="preserve"
	>
<style type="text/css">
	.st0{fill:#004E7D;}
	.st1{fill:#00A0DD;}
</style>
<g>
	<path d="M129.4,77.9"/>
	<path d="M129.4,69.9"/>
	<path class="st0" d="M129.5,49.9v53.9c0,6.7-4.4,12.6-10.9,14.5l-47.2,8.1c-9.3,1.6-17.7-5.6-17.7-15V22.5L0,2.1v131
		c0,37.4,37.1,63.4,72.3,50.7l62.5-22.6c6.7-1.9,9.3-4.8,10.1-6c2.2-3.7,3.5-8.4,3.5-12.9V115V94V57.4L129.5,49.9z"/>
	<polygon class="st1" points="122.9,50 93.7,56 93.7,82.8 122.9,76.9 	"/>
	<polygon class="st1" points="122.9,17.1 93.7,23.1 93.7,49.9 122.9,44 	"/>
	<polygon class="st1" points="87.3,34.6 68.5,38.4 68.5,54.9 87.3,51.2 	"/>
	<polygon class="st1" points="167.3,0 129.3,7.8 129.3,42.5 167.3,35 	"/>
	<path class="st1" d="M93.7,89.3v18c0,5.2-3.7,9.6-8.8,10.5l-0.4,0.1L101,115l11.9-2c5.8-1,10-5.9,10-11.8V83.3L93.7,89.3z"/>
	<g>
		<path class="st0" d="M153.8,165.2c0-0.7,0.2-1.4,0.5-2c0.4-0.6,0.9-1.1,1.5-1.5s1.3-0.6,2.1-0.6c0.7,0,1.4,0.2,2,0.5
			c0.6,0.4,1.1,0.9,1.5,1.5s0.6,1.3,0.6,2.1c0,0.7-0.2,1.4-0.5,2c-0.4,0.6-0.8,1.1-1.5,1.5s-1.3,0.6-2.1,0.6c-0.8,0-1.4-0.2-2.1-0.6
			s-1.1-0.9-1.5-1.5C153.9,166.6,153.8,165.9,153.8,165.2z M154.3,165.2c0,0.6,0.2,1.2,0.5,1.8s0.7,1,1.3,1.3s1.1,0.5,1.8,0.5
			c0.6,0,1.2-0.2,1.8-0.5c0.5-0.3,1-0.7,1.3-1.3c0.3-0.5,0.5-1.1,0.5-1.8c0-0.6-0.2-1.2-0.5-1.8c-0.3-0.5-0.7-1-1.3-1.3
			s-1.1-0.5-1.8-0.5c-0.6,0-1.2,0.2-1.8,0.5c-0.5,0.3-1,0.7-1.3,1.3C154.5,164,154.3,164.6,154.3,165.2z M159.5,164.2
			c0,0.3-0.1,0.5-0.2,0.8c-0.2,0.2-0.4,0.4-0.7,0.5l1.3,2.2H159l-1.1-1.9h-0.7v1.9h-0.8v-4.9h1.4c0.6,0,1,0.1,1.3,0.4
			S159.5,163.7,159.5,164.2z M157.2,165h0.6c0.3,0,0.5-0.1,0.7-0.2s0.3-0.3,0.3-0.6c0-0.3-0.1-0.5-0.2-0.6c-0.2-0.1-0.4-0.2-0.7-0.2
			h-0.6V165z"/>
	</g>
</g>
</svg>
